<?xml version="1.0" encoding="UTF-8"?>
<svg version="1.1" xmlns="http://www.w3.org/2000/svg" width="1024" height="1024">
<path d="M0 0 C337.92 0 675.84 0 1024 0 C1024 337.92 1024 675.84 1024 1024 C686.08 1024 348.16 1024 0 1024 C0 686.08 0 348.16 0 0 Z " fill="#7386F3" transform="translate(0,0)"/>
<path d="M0 0 C337.92 0 675.84 0 1024 0 C1024 337.92 1024 675.84 1024 1024 C686.08 1024 348.16 1024 0 1024 C0 686.08 0 348.16 0 0 Z M216.9375 96.6875 C216.11789795 96.94241211 215.2982959 97.19732422 214.45385742 97.45996094 C195.5163362 103.55462796 176.98486014 112.79344787 162 126 C161.23042969 126.66128906 160.46085937 127.32257813 159.66796875 128.00390625 C157.06364787 130.28847206 154.52520104 132.62816569 152 135 C151.45794922 135.50805176 150.91589844 136.01610352 150.35742188 136.53955078 C141.74557685 144.67750377 134.42953354 153.04777185 128 163 C127.42258057 163.87495117 127.42258057 163.87495117 126.83349609 164.76757812 C111.37004341 188.37412256 101.79548041 217.23245246 101.87415886 245.53573227 C101.87270542 246.45732065 101.87125198 247.37890903 101.86975449 248.32842433 C101.86611185 251.4093757 101.86957287 254.49027705 101.87301636 257.57122803 C101.87186385 259.80537258 101.87027545 262.03951694 101.86828911 264.2736609 C101.8641135 270.4078869 101.86617855 276.54209735 101.86927533 282.67632341 C101.87130415 288.61422391 101.86864079 294.55212181 101.86612797 300.4900217 C101.86086453 313.38391316 101.86131778 326.27779966 101.86420688 339.17169159 C101.86672329 350.45790896 101.86737874 361.74412451 101.86618423 373.0303421 C101.86610785 373.77923678 101.86603146 374.52813145 101.86595276 375.29971991 C101.86564142 378.3398374 101.86532302 381.37995489 101.864993 384.42007238 C101.86193415 412.93822488 101.86470701 441.45637423 101.8700899 469.97452625 C101.87483354 495.29844888 101.87441249 520.62236648 101.86962891 545.94628906 C101.86427084 574.40653379 101.86215303 602.86677572 101.86524117 631.32702088 C101.86556188 634.3628122 101.86587472 637.39860352 101.86618423 640.43439484 C101.86626331 641.18186739 101.86634239 641.92933995 101.86642386 642.69946319 C101.86756011 653.97444504 101.8662333 665.24942487 101.86370468 676.52440643 C101.86084241 689.35098234 101.86156659 702.17755252 101.86698543 715.00412771 C101.86965878 721.54741439 101.87064625 728.09069298 101.86733627 734.6339798 C101.86435044 740.62721108 101.86600423 746.62042275 101.87131383 752.61365226 C101.87242827 754.77847216 101.87186846 756.94329372 101.86943804 759.10811254 C101.85413251 773.87731938 101.84746012 788.16490411 105.5625 802.5625 C105.82643555 803.59262207 106.09037109 804.62274414 106.36230469 805.68408203 C112.12629462 827.32403267 121.74859829 847.64341483 136 865 C136.45101074 865.5563916 136.90202148 866.1127832 137.36669922 866.68603516 C162.56235799 897.6324132 196.52326843 916.87888881 236 923 C237.0125285 923.1695856 238.025057 923.3391712 239.06826818 923.51389575 C243.47816468 924.05911845 247.75226392 924.14080615 252.18920326 924.13142776 C253.09764531 924.1334804 254.00608737 924.13553303 254.94205797 924.13764787 C257.99040786 924.1433086 261.03871243 924.14186175 264.08706665 924.14044189 C266.29315981 924.14302608 268.49925251 924.14603939 270.70534456 924.1494453 C276.77163369 924.15751266 282.83791099 924.15930473 288.90420485 924.16004276 C294.77401779 924.16170376 300.64382459 924.16802231 306.51363433 924.17412117 C322.24002191 924.19017134 337.96640852 924.196084 353.69280283 924.20086992 C361.1379221 924.20320754 368.58304061 924.20681045 376.02815928 924.2105653 C401.53049896 924.22340191 427.03283821 924.23411944 452.53518105 924.2375679 C454.13576548 924.23778953 455.73634992 924.23801132 457.33693435 924.23823325 C458.94132397 924.23845389 460.54571359 924.23867437 462.15010321 924.2388947 C465.3686235 924.23933725 468.58714378 924.23978436 471.80566406 924.24023438 C472.60366844 924.24034377 473.40167283 924.24045316 474.22385916 924.24056586 C500.07577705 924.24419324 525.92766685 924.26010066 551.77957399 924.28342474 C579.13242988 924.3080577 606.48526973 924.32174241 633.83813703 924.32293582 C636.84489465 924.32310726 639.85165227 924.32332269 642.85840988 924.32357025 C643.96887552 924.3236539 643.96887552 924.3236539 645.1017748 924.32373925 C656.98331253 924.32488689 668.86482131 924.33588474 680.74634929 924.35045731 C692.70632349 924.36487154 704.66626083 924.36803168 716.62624134 924.36001733 C723.09762936 924.3561223 729.56892057 924.35698416 736.04029655 924.37107468 C741.97732918 924.38388285 747.91419292 924.38255574 753.85122554 924.37048396 C755.98663988 924.36853885 758.12206647 924.3715498 760.25746365 924.38032833 C777.81113811 924.44785816 795.58767459 923.56415266 812.3125 917.75 C813.22290039 917.44481445 814.13330078 917.13962891 815.07128906 916.82519531 C834.60239734 910.14078858 852.5139489 900.83609132 868 887 C869.44052734 885.75669922 869.44052734 885.75669922 870.91015625 884.48828125 C901.72393303 857.51436743 919.94329316 818.68735198 923 778 C923.33949126 770.49632763 923.2709555 762.98290455 923.25396729 755.47346497 C923.25627582 753.2331279 923.25945497 750.99279159 923.26342177 748.75245684 C923.27172421 742.63822052 923.26766532 736.52404712 923.26144934 730.40981066 C923.25737463 724.47991064 923.26272855 718.55002082 923.26774407 712.62012316 C923.27824216 699.75422888 923.27737624 686.88835455 923.27158624 674.0224584 C923.26654516 662.76482963 923.26524638 651.50720815 923.26763153 640.24957848 C923.2677843 639.50137884 923.26793707 638.75317921 923.26809447 637.98230686 C923.26871719 634.94477114 923.269354 631.90723542 923.270014 628.86969971 C923.27612444 600.40784289 923.27059674 571.94599873 923.2598202 543.48414386 C923.25032691 518.21932155 923.25118158 492.9545194 923.26074219 467.68969727 C923.27145943 439.27369668 923.27569392 410.85770726 923.26951766 382.44170493 C923.26887627 379.4107947 923.26825058 376.37988446 923.26763153 373.34897423 C923.26747338 372.6027411 923.26731522 371.85650796 923.26715227 371.08766171 C923.26488092 359.83737191 923.26753112 348.58709021 923.27259064 337.33680153 C923.2783161 324.54228178 923.27686453 311.74778499 923.26602915 298.95326809 C923.26068481 292.42802132 923.25870372 285.90280698 923.26532745 279.37755966 C923.27130342 273.39999399 923.26798458 267.42250697 923.25737235 261.4449484 C923.25514535 259.28707985 923.25625881 257.12920461 923.26112393 254.9713404 C923.31089735 231.05315206 920.04903512 207.92732722 910 186 C909.56131592 185.03634521 909.56131592 185.03634521 909.11376953 184.05322266 C890.97194889 144.66751251 858.02813364 114.44091662 817.48364258 99.16992188 C797.71784034 92.13617533 777.87957996 90.69852815 757.08929443 90.73930359 C754.89136986 90.73627863 752.69344633 90.73238742 750.49552464 90.72771102 C744.48903941 90.71746672 738.48261411 90.71960373 732.47612405 90.72389162 C725.9851596 90.72636534 719.49420933 90.71733665 713.00325012 90.70985413 C700.29943062 90.69670172 687.59563003 90.6953057 674.89180508 90.69765439 C664.56242228 90.69949057 654.23304567 90.69772064 643.90366364 90.69342995 C642.41704802 90.69282753 640.93043241 90.69222633 639.4438168 90.69162634 C637.20333281 90.69071904 634.96284882 90.68981037 632.72236483 90.68889399 C611.90449268 90.68047032 591.08662285 90.67612471 570.26874924 90.68030071 C569.09275654 90.68053528 569.09275654 90.68053528 567.89300642 90.68077458 C563.91985934 90.6815803 559.94671226 90.68242607 555.97356519 90.68328788 C554.7900517 90.68354451 554.7900517 90.68354451 553.58262884 90.68380633 C551.98706289 90.68415299 550.39149694 90.68450152 548.79593099 90.68485192 C523.97445426 90.69020791 499.15301307 90.68227975 474.33154297 90.66381836 C446.41175451 90.64307661 418.49198807 90.63237979 390.57219148 90.63639385 C387.59199413 90.63678916 384.61179678 90.63715071 381.63159943 90.63749123 C380.89785876 90.63758196 380.1641181 90.63767269 379.40814287 90.63776617 C368.35869229 90.63892941 357.30926403 90.63230473 346.25981903 90.62167931 C333.68497312 90.60959897 321.11017617 90.60810088 308.53532949 90.62046947 C302.12489393 90.62634744 295.71455396 90.62748749 289.30412483 90.61546707 C283.42549129 90.60457234 277.54703272 90.60775426 271.66840723 90.62172876 C269.55211171 90.62436581 267.43580231 90.62204067 265.31952044 90.61399289 C248.88077012 90.55586402 232.71548824 91.67193411 216.9375 96.6875 Z " fill="#FEFEFE" transform="translate(0,0)"/>
<path d="M0 0 C1.03248239 -0.00782324 2.06496479 -0.01564648 3.12873453 -0.02370679 C4.8278862 -0.01366855 4.8278862 -0.01366855 6.56136417 -0.00342751 C7.76590199 -0.00810748 8.97043981 -0.01278745 10.21147877 -0.01760924 C13.55643071 -0.02751765 16.90087863 -0.02393454 20.24580014 -0.01465058 C23.85255727 -0.00787347 27.45926979 -0.01833471 31.0660181 -0.02659035 C38.13247982 -0.03994462 45.19884605 -0.03704231 52.26531153 -0.02835242 C58.00793544 -0.0215824 63.75053255 -0.0206562 69.49315929 -0.02392387 C70.30990529 -0.02438357 71.12665128 -0.02484327 71.96814715 -0.0253169 C73.62726736 -0.02627606 75.28638757 -0.0272487 76.94550777 -0.02823468 C92.51100826 -0.03679367 108.07645578 -0.02694674 123.64194757 -0.01083358 C137.00118578 0.00256756 150.36034577 0.00024419 163.71958256 -0.01358986 C179.22712415 -0.02964102 194.73461927 -0.035967 210.24216801 -0.02675307 C211.89555426 -0.02579741 213.54894051 -0.02485429 215.20232677 -0.02392387 C216.4226203 -0.02322963 216.4226203 -0.02322963 217.66756622 -0.02252137 C223.40354363 -0.0199299 229.13949159 -0.02430591 234.87546444 -0.03136253 C241.86544226 -0.03977269 248.855319 -0.03750774 255.84528523 -0.0215203 C259.41248342 -0.01363062 262.97951303 -0.01055769 266.54671001 -0.02046776 C270.41155355 -0.03104238 274.27612045 -0.01842406 278.14095402 -0.00342751 C279.27149108 -0.01011967 280.40202814 -0.01681184 281.5668239 -0.02370679 C282.60191404 -0.01588355 283.63700418 -0.00806031 284.70346069 0 C285.59553378 0.00048706 286.48760687 0.00097411 287.40671247 0.00147593 C291.25545723 0.57856777 293.90346722 2.426947 296.70292091 5.05860996 C298.47752549 8.45470846 298.33155045 11.73878336 298.30233097 15.48013878 C298.31040928 16.71517325 298.31040928 16.71517325 298.31865078 17.97515792 C298.33297472 20.73809326 298.3258157 23.50055249 298.31870365 26.26350975 C298.32440499 28.24286854 298.33136833 30.22222404 298.33950138 32.20157433 C298.35747636 37.5818484 298.35625596 42.96195977 298.350559 48.34225488 C298.34747267 52.83279591 298.35355357 57.32330544 298.35959774 61.813842 C298.37365631 72.40874478 298.37207128 83.00356695 298.36069584 93.59847069 C298.34921969 104.52867991 298.36327888 115.45864362 298.39009231 126.38882047 C298.41224785 135.77154069 298.41888682 145.15418384 298.4130159 154.53692836 C298.40964401 160.14137788 298.41207661 165.74567012 298.42926693 171.35009766 C298.44473099 176.62214159 298.44078628 181.89382205 298.42196178 187.16585159 C298.41827409 189.09959532 298.42138961 191.03336593 298.43184757 192.96708488 C298.44504723 195.60979449 298.43351926 198.2512991 298.41585636 200.89395714 C298.42546137 201.65681032 298.43506637 202.41966351 298.44496244 203.20563346 C298.37384312 208.38772957 297.43853162 212.43826359 293.91465092 216.37752342 C288.28073406 220.76306362 282.34282018 220.94205891 275.45301151 220.8561306 C274.42417658 220.85939846 273.39534164 220.86266631 272.33532989 220.8660332 C268.90071237 220.87226429 265.46687096 220.8501403 262.0323267 220.82820702 C259.56464495 220.8271182 257.09696181 220.82787189 254.62928104 220.83032799 C249.32112761 220.83211531 244.0131923 220.82215491 238.70509052 220.802248 C231.01968495 220.7739735 223.33446136 220.77353736 215.64901625 220.78093107 C203.16413965 220.79274731 190.67930951 220.79118708 178.19443607 220.77693748 C177.44794827 220.77609223 176.70146046 220.77524698 175.93235181 220.77437611 C167.60576585 220.76465159 159.27918994 220.75168566 150.95261478 220.7351284 C147.93361258 220.72917048 144.91461032 220.72324276 141.89560795 220.71736717 C140.77815735 220.7151827 140.77815735 220.7151827 139.63813199 220.71295409 C127.20087725 220.68928539 114.76374159 220.68889831 102.32647789 220.70664084 C94.6637602 220.71657623 87.00157858 220.70655667 79.33893655 220.67053403 C73.46339313 220.64454988 67.58813144 220.64947857 61.71254444 220.66564941 C59.30756125 220.66722873 56.90254563 220.65855353 54.49764347 220.63874817 C51.20781872 220.61310931 47.92007387 220.62458488 44.63025761 220.64494896 C43.68432401 220.62863438 42.73839041 220.6123198 41.76379216 220.59551084 C32.75892223 220.72625694 25.73812812 224.99480494 19.49057865 231.36336327 C18.77381458 232.08365715 18.05705051 232.80395103 17.31856632 233.54607201 C16.58586018 234.30256035 15.85315403 235.05904869 15.09824467 235.83846092 C14.3157082 236.62902885 13.53317173 237.41959679 12.72692204 238.23412132 C10.25891201 240.73086307 7.80507758 243.24096972 5.35215092 245.75252342 C2.86442728 248.28272917 0.37386304 250.81007846 -2.11902523 253.33519554 C-3.6628836 254.90080094 -5.2032376 256.46987106 -6.73978329 258.04265404 C-7.77237522 259.09472542 -7.77237522 259.09472542 -8.8258276 260.16805077 C-9.43298107 260.78948967 -10.04013454 261.41092857 -10.66568661 262.05119896 C-12.08534908 263.37752342 -12.08534908 263.37752342 -13.08534908 263.37752342 C-13.17658932 231.12157592 -13.24738251 198.86566512 -13.2896104 166.60961875 C-13.29461326 162.80194744 -13.29979054 158.99427638 -13.30507565 155.18660545 C-13.30612489 154.42856316 -13.30717413 153.67052087 -13.30825517 152.88950761 C-13.32566286 140.61358749 -13.35720254 128.33774225 -13.39396027 116.06186657 C-13.43135958 103.46672405 -13.45358279 90.87162077 -13.46170306 78.276425 C-13.46719295 70.50378448 -13.48453536 62.73135562 -13.51701495 54.95878024 C-13.54064802 48.99987871 -13.54317146 43.04108595 -13.53777981 37.08213615 C-13.53888197 34.63678114 -13.54686135 32.19141825 -13.56217098 29.74611092 C-13.58203023 26.41106818 -13.5773023 23.07693597 -13.56636715 19.74187279 C-13.57801852 18.77104897 -13.58966988 17.80022515 -13.60167432 16.79998243 C-13.55155817 11.1571519 -12.94673252 7.79515647 -9.08534908 3.37752342 C-6.0182078 0.62329947 -4.10112043 0.00223955 0 0 Z " fill="#7186F3" transform="translate(370.0853490829468,360.6224765777588)"/>
<path d="M0 0 C1.22287761 -0.00382555 2.44575522 -0.00765109 3.70568973 -0.01159257 C7.07887439 -0.020092 10.45183973 -0.01970186 13.82501781 -0.01541197 C17.47138975 -0.01293678 21.11773651 -0.02196885 24.76409912 -0.02944946 C31.90038585 -0.04217761 39.03663492 -0.04399242 46.1729311 -0.0416492 C51.97732994 -0.03986337 57.7817174 -0.04162137 63.58611488 -0.04587364 C64.41346173 -0.04646883 65.24080857 -0.04706402 66.09322653 -0.04767724 C67.77423248 -0.04888905 69.45523844 -0.05010319 71.13624439 -0.05131962 C86.8903986 -0.06218841 102.64453139 -0.06003611 118.3986868 -0.05393478 C132.78963819 -0.04876915 147.18052181 -0.06001288 161.57145979 -0.07903299 C176.3682011 -0.09843859 191.16491039 -0.10666244 205.9616645 -0.10290974 C214.2607479 -0.10100145 222.55977368 -0.1034487 230.85884666 -0.11762428 C237.92602629 -0.12957397 244.99311283 -0.13090312 252.06029382 -0.11883412 C255.66105005 -0.1129698 259.26163635 -0.11177743 262.86238098 -0.12383652 C266.77853544 -0.1367986 270.69443616 -0.12617241 274.6105957 -0.11352539 C275.73096133 -0.12089968 276.85132697 -0.12827396 278.00564307 -0.13587171 C294.36230485 -0.02543394 309.48082741 4.01234303 321.56025696 15.44819641 C333.39978872 28.15956409 337.7740762 41.81945079 337.76992798 58.82173157 C337.77360467 59.64623904 337.77728135 60.47074652 337.78106946 61.32023907 C337.79201968 64.06341885 337.7959353 66.80656064 337.79975891 69.54975891 C337.80603016 71.5249544 337.81267754 73.50014873 337.81967163 75.4753418 C337.84063749 81.94545176 337.85106771 88.41556176 337.86103821 94.88569641 C337.8650887 97.12034619 337.8692057 99.35499585 337.87338829 101.58964539 C337.89242432 112.09216935 337.90665812 122.59468636 337.91500026 133.09722424 C337.92476397 145.18709506 337.95106769 157.27678238 337.99150115 169.36658859 C338.02174377 178.73337833 338.03647688 188.1001157 338.03978127 197.46695328 C338.04212259 203.05097365 338.05096302 208.63479763 338.07624245 214.21876526 C338.09967088 219.47854763 338.10369746 224.73800633 338.09348106 229.99782753 C338.09298916 231.9165181 338.09920638 233.83522542 338.11303711 235.7538662 C338.25592691 256.77040244 334.52602292 276.20140286 319.28291321 291.85835266 C306.73913225 303.18643678 292.1316541 307.43314249 275.55575562 307.38095093 C274.55747142 307.38180535 273.55918722 307.38265978 272.53065199 307.38354009 C269.19422912 307.38518382 265.85785682 307.37969165 262.5214386 307.3742218 C260.12634787 307.37393967 257.73125706 307.37409818 255.33616638 307.37466431 C249.51309145 307.37492147 243.69003301 307.3705899 237.86696184 307.36422665 C231.08907045 307.35706821 224.31118138 307.35558062 217.53328674 307.35443848 C205.44681435 307.35225188 193.36034873 307.34560241 181.27388 307.33613586 C169.5355991 307.32695162 157.79732003 307.31987573 146.05903625 307.31562805 C145.33503539 307.31536533 144.61103453 307.3151026 143.86509425 307.31483192 C140.23285939 307.31352685 136.60062451 307.31226315 132.96838963 307.31102002 C102.853174 307.3006596 72.73796627 307.28297741 42.62275696 307.26069641 C42.32415111 307.88448055 42.02554525 308.50826469 41.71789074 309.15095139 C40.50700326 311.48369272 39.16107288 312.95691658 37.29389954 314.80073547 C36.61591812 315.47533813 35.93793671 316.1499408 35.2394104 316.84498596 C34.13945992 317.92474701 34.13945992 317.92474701 33.01728821 319.02632141 C31.88114326 320.154664 31.88114326 320.154664 30.7220459 321.30580139 C28.2978139 323.71222866 25.86702713 326.11188879 23.43525696 328.51069641 C21.02216604 330.89602846 18.61059575 333.28284693 16.20202637 335.67274475 C14.70445132 337.15822016 13.20421251 338.64101679 11.70083618 340.12062073 C7.71319934 344.07071781 3.93179888 348.12389198 0.26828003 352.37571716 C-3.806426 357.04337358 -8.21747653 361.40553548 -12.57426453 365.80781555 C-13.73818863 366.9883928 -14.89670771 368.17432243 -16.04985046 369.36543274 C-17.73926218 371.10987415 -19.4447902 372.83703861 -21.15458679 374.56147766 C-21.91278969 375.35368462 -21.91278969 375.35368462 -22.68630981 376.16189575 C-27.55824339 381.0059105 -33.38085735 383.66615066 -40.37724304 383.76069641 C-46.52088406 383.55307721 -50.58234385 380.97736687 -54.91239929 376.76850891 C-59.08965661 372.06757211 -60.62488527 367.83129934 -60.63730526 361.61894894 C-60.64437085 360.48777391 -60.65143644 359.35659889 -60.65871614 358.19114584 C-60.65630106 356.95322823 -60.65388597 355.71531063 -60.65139771 354.43988037 C-60.65663438 353.12100407 -60.66187106 351.80212777 -60.66726643 350.44328552 C-60.68144479 346.78361928 -60.68310975 343.12403797 -60.68266952 339.4643482 C-60.68431792 335.51663989 -60.69738506 331.56896655 -60.7088623 327.62127686 C-60.73171175 318.98881161 -60.73963318 310.35637096 -60.74468875 301.72387958 C-60.74794649 296.33145008 -60.75446953 290.93902771 -60.76169014 285.54660225 C-60.78125769 270.61064477 -60.79766043 255.67469392 -60.80056667 240.7387228 C-60.80075424 239.78291111 -60.80094181 238.82709941 -60.80113507 237.84232372 C-60.80150131 235.90471939 -60.80186501 233.96711506 -60.80222618 232.02951073 C-60.80240899 231.06770386 -60.8025918 230.10589699 -60.80278015 229.11494446 C-60.8029607 228.1519605 -60.80314125 227.18897655 -60.80332727 226.19681127 C-60.80686707 210.60144553 -60.83387662 195.00621804 -60.87127804 179.41090023 C-60.90938801 163.3916208 -60.92872436 147.37240991 -60.92902619 131.35308415 C-60.92961023 122.36202359 -60.93806755 113.37112785 -60.96702385 104.38010979 C-60.99157398 96.72205267 -60.99879634 89.06422046 -60.98377632 81.4061346 C-60.97662163 77.50175988 -60.97740181 73.59782891 -61.00018692 69.69350433 C-61.02088551 66.11224445 -61.01807685 62.53176639 -60.99731208 58.95051397 C-60.99220411 57.05579791 -61.01151336 55.16106329 -61.03197378 53.26645082 C-60.89626924 39.32527769 -54.42820401 26.71922092 -45.37724304 16.26069641 C-31.78684491 4.30769564 -17.7486432 -0.05928124 0 0 Z M-15.37724304 49.26069641 C-17.13375849 52.19091577 -17.62669275 54.31869412 -17.6233387 57.71969986 C-17.6273208 58.61244653 -17.63130289 59.5051932 -17.63540566 60.4249928 C-17.62957998 61.4016423 -17.62375429 62.3782918 -17.61775208 63.38453674 C-17.61946092 64.42517674 -17.62116977 65.46581674 -17.62293041 66.53799129 C-17.62623278 70.0357983 -17.61520917 73.53341479 -17.60429382 77.03120422 C-17.60372987 79.53422542 -17.60404595 82.03724694 -17.60517883 84.54026794 C-17.60563473 89.93466404 -17.59995052 95.32900048 -17.58870316 100.72338104 C-17.57245194 108.52274864 -17.56724054 116.32209285 -17.56472717 124.12147555 C-17.56034948 136.77531764 -17.54703834 149.42913395 -17.52812195 162.08296204 C-17.50976508 174.37527843 -17.49560763 186.66758783 -17.48710632 198.95991516 C-17.48658088 199.71756114 -17.48605543 200.47520713 -17.48551406 201.25581208 C-17.48290399 205.0566836 -17.48037657 208.85755516 -17.47789025 212.65842676 C-17.45715543 244.19253539 -17.42177923 275.72661199 -17.37724304 307.26069641 C-16.25079637 306.30021809 -15.12505921 305.3389076 -13.99962425 304.377244 C-13.37265376 303.84200314 -12.74568328 303.30676229 -12.09971368 302.75530201 C-10.28025507 301.17653895 -8.55918647 299.53991582 -6.87968445 297.81318665 C-6.28861908 297.20913498 -5.69755371 296.60508331 -5.08857727 295.98272705 C-4.4748526 295.35129288 -3.86112793 294.7198587 -3.22880554 294.06929016 C-1.8802995 292.6984024 -0.53132677 291.32797357 0.81806946 289.95796204 C2.91143017 287.82755286 5.00154328 285.6943024 7.08369446 283.55293274 C9.1160555 281.46568836 11.16123506 279.39171247 13.20869446 277.31929016 C13.81837067 276.68583176 14.42804688 276.05237335 15.05619812 275.39971924 C21.57496178 268.84243666 27.91344738 264.72390499 37.34281689 264.60776514 C38.29166333 264.62116688 39.24050977 264.63456861 40.21810913 264.64837646 C41.76475987 264.64007634 41.76475987 264.64007634 43.34265608 264.63160855 C46.77896539 264.61908291 50.21410221 264.64197215 53.65034485 264.66474915 C56.12142194 264.66284438 58.59249816 264.65868709 61.06356812 264.65245056 C66.37556767 264.64366968 71.68722971 264.64980367 76.99917793 264.66911125 C84.6879131 264.69667965 92.37639161 264.6927458 100.06515496 264.68052543 C112.55288848 264.66115576 125.04053712 264.66105672 137.52827454 264.67597961 C138.27472146 264.67686575 139.02116839 264.67775188 139.79023492 264.67866487 C142.81470891 264.68229885 145.83918278 264.68601624 148.86365655 264.68983143 C157.19163949 264.70029731 165.51962351 264.70854095 173.84761047 264.71504211 C174.9663632 264.71592447 174.9663632 264.71592447 176.10771699 264.71682464 C188.55175696 264.72610989 200.99574628 264.71962133 213.43977731 264.70273167 C221.10783862 264.69315319 228.77562727 264.69826735 236.44365775 264.72249938 C242.31892796 264.74013542 248.19407974 264.73773086 254.06937218 264.72806168 C256.47680141 264.72752652 258.88424351 264.73386615 261.29163361 264.74760246 C264.57952334 264.76545167 267.86649519 264.75872205 271.15438843 264.74603271 C272.10546559 264.75720373 273.05654275 264.76837475 274.03644043 264.77988428 C279.96680407 264.72403822 284.84090358 263.98309251 289.62275696 260.26069641 C293.7569061 255.63618346 294.2021486 250.77178141 294.13742065 244.79058838 C294.14783895 243.55065065 294.14783895 243.55065065 294.15846771 242.28566366 C294.17669132 239.52958556 294.16648659 236.77437275 294.15620422 234.01826477 C294.16326494 232.03683836 294.17201059 230.05541734 294.18231201 228.07400513 C294.20479564 222.70219872 294.20186904 217.33068709 294.19299054 211.95885158 C294.18787823 207.47302807 294.19517501 202.98725983 294.20246261 198.50144202 C294.21945754 187.92041184 294.21589883 177.3395259 294.19917297 166.75849915 C294.18224062 155.84235326 294.19810259 144.92660693 294.23039585 134.01050466 C294.25707974 124.63537033 294.26437132 115.26036047 294.25588077 105.88519198 C294.25094948 100.28693652 294.25317869 94.68892164 294.27366829 89.09069633 C294.29200714 83.82838874 294.28608842 78.56665696 294.26146889 73.30438042 C294.25645587 71.37344145 294.25996345 69.44245873 294.27261734 67.51155472 C294.28852894 64.87497989 294.27361607 62.24030576 294.25094604 59.6038208 C294.26278177 58.84010113 294.2746175 58.07638146 294.28681189 57.28951877 C294.21871379 53.39027991 293.6626908 50.82514957 291.27099514 47.80175114 C287.73890426 44.41261633 285.36507824 44.13597056 280.66324902 44.12368202 C279.63337437 44.11860748 278.60349972 44.11353294 277.54241675 44.10830462 C276.40741825 44.10780686 275.27241974 44.10730911 274.10302734 44.10679626 C272.2985606 44.10022288 272.2985606 44.10022288 270.45763999 44.09351671 C267.11252572 44.0824467 263.76745825 44.07590262 260.42233241 44.07133555 C256.8169101 44.06537988 253.21150504 44.0537701 249.60609436 44.04304504 C240.89683009 44.01852249 232.1875601 44.00389528 223.47827193 43.99098498 C221.01901754 43.98727331 218.55976371 43.98330007 216.10050988 43.97923231 C200.83286714 43.95399901 185.5652235 43.9319433 170.29756451 43.91950417 C166.76118657 43.91657442 163.22480866 43.91361276 159.68843079 43.91059875 C158.3699893 43.90947968 158.3699893 43.90947968 157.02491263 43.908338 C142.78010471 43.89567908 128.53542146 43.86244847 114.29067185 43.82079692 C99.67044662 43.77839733 85.05028526 43.75481153 70.4299987 43.7495836 C62.21932692 43.74616753 54.00885007 43.73438912 45.79823875 43.70148087 C38.80714382 43.67350645 31.81628378 43.66246952 24.82513722 43.67367633 C21.2576909 43.67886952 17.69073669 43.67593432 14.12336159 43.65121078 C10.25651929 43.62463523 6.39035091 43.63675617 2.5234375 43.6526947 C0.83097799 43.63187157 0.83097799 43.63187157 -0.89567262 43.61062777 C-7.5186282 43.67810164 -10.92868416 44.19415291 -15.37724304 49.26069641 Z " fill="#FEFEFE" transform="translate(374.3772430419922,316.7393035888672)"/>
<path d="M0 0 C0.33 0 0.66 0 1 0 C0.92912957 0.80242256 0.85825914 1.60484513 0.78524113 2.43158352 C0.16400387 9.88179968 -0.14025388 17.25001175 -0.11352539 24.72384644 C-0.11367283 25.83194137 -0.11382028 26.9400363 -0.11397219 28.08170986 C-0.11327897 31.76787202 -0.10545069 35.45398327 -0.09765625 39.14013672 C-0.09575394 41.81300503 -0.09426296 44.48587058 -0.09329987 47.15873909 C-0.09045659 52.94170884 -0.08404612 58.72466569 -0.07530212 64.50762939 C-0.06248153 73.04931193 -0.05605804 81.59099093 -0.05127805 90.13268134 C-0.04376209 103.50619427 -0.03338413 116.87970274 -0.02076155 130.25321177 C0.01236555 165.46339546 0.026002 200.67358589 0.0308702 235.88378412 C0.03125081 238.56820397 0.03168397 241.25262382 0.03212166 243.93704367 C0.04328842 316.58397167 -0.16073367 389.22892234 -0.5 461.875 C-0.5121508 464.49461617 -0.5242968 467.11423236 -0.53643799 469.73384857 C-0.6793483 500.48929371 -0.83244503 531.24467916 -1 562 C-1.33 562 -1.66 562 -2 562 C-3.19320112 557.30738583 -3.14021899 552.76261489 -3.12863445 547.95645905 C-3.13038749 547.03948604 -3.13214053 546.12251304 -3.13394669 545.17775297 C-3.13861867 542.08841705 -3.13613808 538.99912796 -3.13371277 535.90979004 C-3.13558015 533.67909758 -3.13788056 531.44840544 -3.14057809 529.21771383 C-3.14671175 523.07445184 -3.14656065 516.93120343 -3.14538372 510.78793907 C-3.145201 504.84694677 -3.14968779 498.90595848 -3.1539966 492.96496815 C-3.16367447 479.30819359 -3.16648103 465.65142277 -3.16705366 451.99464518 C-3.16751307 441.44615176 -3.16957069 430.89765981 -3.17275429 420.34916687 C-3.17365183 417.31358131 -3.17454164 414.27799575 -3.17542917 411.24241018 C-3.17565021 410.48775872 -3.17587126 409.73310726 -3.17609901 408.95558758 C-3.18225471 387.72333426 -3.18619943 366.49108146 -3.18575573 345.25882721 C-3.18574015 344.45807487 -3.18572457 343.65732253 -3.18570852 342.83230497 C-3.18562541 338.7737129 -3.18552637 334.71512084 -3.18542381 330.65652877 C-3.18540387 329.85047274 -3.18538392 329.0444167 -3.18536337 328.21393473 C-3.18532294 326.5838907 -3.18528114 324.95384667 -3.18523798 323.32380264 C-3.18462548 297.97367519 -3.19212645 272.62356112 -3.20581055 247.2734375 C-3.22117741 218.79417702 -3.22977636 190.31492534 -3.22884732 161.83566046 C-3.22877269 158.79756006 -3.22872399 155.75945966 -3.22869301 152.72135925 C-3.22868135 151.97330069 -3.2286697 151.22524213 -3.22865769 150.45451513 C-3.22862694 138.42438177 -3.23500873 126.39426004 -3.24362527 114.36413013 C-3.25211013 102.2673899 -3.25308522 90.17066664 -3.24651595 78.07392508 C-3.24314982 71.52255553 -3.24319964 64.9712196 -3.2518692 58.41985321 C-3.25972844 52.41904198 -3.25830855 46.41830623 -3.24958507 40.41749686 C-3.2480488 38.2498651 -3.24987103 36.08222772 -3.25544515 33.91460258 C-3.32091667 6.64183334 -3.32091667 6.64183334 0 0 Z " fill="#618FF3" transform="translate(105,221)"/>
<path d="M0 0 C0.33 0 0.66 0 1 0 C1.05139183 51.36208424 1.09914886 102.72417032 1.12702942 154.08627319 C1.12744359 154.84731369 1.12785776 155.60835418 1.12828448 156.3924565 C1.1372647 172.9347551 1.14557503 189.47705397 1.15319599 206.01935325 C1.15693776 214.13253113 1.16082746 222.24570894 1.16479492 230.35888672 C1.1651872 231.16621476 1.16557948 231.9735428 1.16598364 232.80533533 C1.1787514 258.93955134 1.20127312 285.0737478 1.22889166 311.20795198 C1.25723841 338.08024557 1.27566767 364.95252835 1.28174497 391.82483663 C1.28260934 395.62657543 1.28358625 399.42831419 1.28463173 403.23005295 C1.284834 403.9782372 1.28503627 404.72642146 1.28524467 405.49727796 C1.28877998 417.50639289 1.30266748 429.51547426 1.3204961 441.52457554 C1.33822753 453.61872271 1.34488659 465.71283684 1.34050413 477.80699654 C1.3384333 484.35136456 1.34146104 490.89565391 1.35761642 497.44000626 C1.37233173 503.4452147 1.37287767 509.45026038 1.36269668 515.45547669 C1.3614404 517.61467273 1.36514665 519.77387938 1.37464955 521.93305488 C1.5074567 554.00372043 -4.0799258 586.66332631 -22 614 C-22.66 614.33 -23.32 614.66 -24 615 C-22.7677465 610.92408457 -21.19619973 607.6285039 -19 604 C-18.30420546 601.80869466 -18.30420546 601.80869466 -18 600 C-17.34 600 -16.68 600 -16 600 C-15.82404297 599.46197754 -15.64808594 598.92395508 -15.46679688 598.36962891 C-14.129457 594.31483536 -12.75324977 590.28147308 -11.28125 586.2734375 C-5.4637149 570.35167775 -1.79315612 554.79140203 -1.90234375 537.76196289 C-1.90453415 536.4473835 -1.90453415 536.4473835 -1.9067688 535.10624695 C-1.91055194 533.21572868 -1.916644 531.32521386 -1.92483521 529.43470955 C-1.93774653 526.41499754 -1.94415398 523.39533024 -1.94897461 520.37559509 C-1.96226259 512.86221013 -1.98621773 505.34886685 -2.01037598 497.83551025 C-2.03039748 491.49749912 -2.04592569 485.15950535 -2.05593872 478.82147026 C-2.0622594 475.89649663 -2.07477179 472.97159697 -2.08764648 470.04664612 C-2.11349018 460.42156267 -1.93808041 450.83937336 -1.5 441.22412109 C-0.72062792 423.38282195 -0.89127447 405.5310514 -0.93143654 387.67703366 C-0.94187765 382.42824301 -0.94571864 377.17944743 -0.95007324 371.9306488 C-0.95816719 362.86985861 -0.96900073 353.80907589 -0.98168945 344.74829102 C-1.01488674 320.56267359 -1.0264161 296.37704436 -1.03125 272.19140625 C-1.03153765 270.948443 -1.03182529 269.70547975 -1.03212166 268.42485094 C-1.04419184 210.79051647 -0.81630777 153.1578809 -0.51822662 95.52440786 C-0.49992778 91.98603574 -0.48173628 88.44766308 -0.46356201 84.90929031 C-0.3179316 56.60614303 -0.16420281 28.30304565 0 0 Z " fill="#8A85EF" transform="translate(922,236)"/>
<path d="M0 0 C47.49111548 -0.02297161 94.98223036 -0.04055142 142.47335032 -0.05106533 C148.10113004 -0.05231579 153.72890975 -0.05361014 159.35668945 -0.05493164 C161.03702287 -0.05532511 161.03702287 -0.05532511 162.75130241 -0.05572652 C180.80536505 -0.0600583 198.85942445 -0.06793192 216.91348518 -0.0771528 C235.48768713 -0.08655904 254.06188741 -0.09207025 272.63609165 -0.09408849 C284.06450991 -0.09544936 295.49291901 -0.09972089 306.92133444 -0.10791647 C314.79609973 -0.11327027 322.67086039 -0.11478506 330.54562736 -0.11350138 C335.06478474 -0.11287123 339.58392631 -0.11372032 344.10308075 -0.11920547 C368.41728562 -0.14729603 392.69690542 0.26088591 417 1 C417 1.33 417 1.66 417 2 C415.88735936 1.99861731 415.88735936 1.99861731 414.75224113 1.99720669 C396.69946871 1.9751176 378.64669899 1.95857191 360.59391594 1.94818783 C351.86371246 1.94303263 343.133518 1.9360047 334.40332031 1.92456055 C326.79364997 1.91459002 319.18398616 1.90814092 311.57430947 1.90591151 C307.54546113 1.90460843 303.51663149 1.90154803 299.48778915 1.89426994 C295.69413762 1.88747238 291.90051244 1.88539065 288.10685539 1.88689232 C286.71612467 1.88661767 285.32539304 1.88463474 283.93466759 1.88079453 C282.03188086 1.87579898 280.12907993 1.87761596 278.22628784 1.87974548 C277.16253874 1.87882369 276.09878963 1.8779019 275.00280571 1.87695217 C271.92576509 2.00304197 269.02958253 2.46489181 266 3 C263.50775298 3.09030498 261.01341285 3.13063213 258.51953125 3.1328125 C257.82486252 3.13376923 257.13019379 3.13472595 256.41447449 3.13571167 C254.9564098 3.13638824 253.498342 3.13457066 252.0402832 3.13037109 C249.80868818 3.12499081 247.57729217 3.13034628 245.34570312 3.13671875 C243.92447872 3.13605835 242.50325445 3.13477799 241.08203125 3.1328125 C239.79530518 3.13168457 238.5085791 3.13055664 237.18286133 3.12939453 C234 3 234 3 231 2 C228.40007039 1.90384283 225.82720825 1.86355593 223.22729492 1.87060547 C222.43670181 1.86885315 221.6461087 1.86710083 220.83155823 1.86529541 C218.21450615 1.86088965 215.59752153 1.86381126 212.98046875 1.8671875 C211.16066983 1.86651389 209.340871 1.86554339 207.52107239 1.86428833 C203.70373682 1.86281292 199.88642464 1.86496015 196.0690918 1.86962891 C191.18329846 1.87531396 186.29756021 1.87205397 181.41176891 1.86605644 C177.65163257 1.86243625 173.89150919 1.86359634 170.13137245 1.86618423 C168.33049831 1.8668501 166.52962298 1.866037 164.72875023 1.86370468 C162.2060982 1.8611556 159.68353418 1.86505106 157.16088867 1.87060547 C156.4204129 1.86858124 155.67993713 1.86655701 154.91702271 1.86447144 C151.83214219 1.87700805 148.91964606 2.01375615 145.87541199 2.53491211 C142.70136219 3.04830363 140.02951322 2.88345036 136.83251953 2.57080078 C127.77909353 1.83306597 118.7584972 1.85525736 109.6796875 1.8671875 C107.84514351 1.86651183 106.0105996 1.86553962 104.17605591 1.86428833 C100.35548031 1.86282449 96.5349283 1.86492375 92.71435547 1.86962891 C87.84852668 1.87533352 82.98275298 1.87203414 78.11692619 1.86605644 C74.33683872 1.86242207 70.55676406 1.86360243 66.77667618 1.86618423 C64.98355223 1.86684514 63.19042707 1.86605478 61.39730453 1.86370468 C52.72352867 1.85482493 44.16614316 1.94909931 35.52456665 2.78881836 C31.86921673 3.09459076 28.27036275 3.02889132 24.609375 2.87890625 C23.89388489 2.85529526 23.17839478 2.83168427 22.44122314 2.80735779 C20.21052975 2.73227667 17.98033073 2.64761047 15.75 2.5625 C14.21486598 2.50912237 12.6797096 2.45638387 11.14453125 2.40429688 C7.4294013 2.27688018 3.71464667 2.14088056 0 2 C0 1.34 0 0.68 0 0 Z " fill="#5F88F2" transform="translate(246,91)"/>
<path d="M0 0 C0 0.66 0 1.32 0 2 C-1.34578125 2.51046875 -1.34578125 2.51046875 -2.71875 3.03125 C-16.81789517 8.47104757 -30.0776156 15.16825188 -43 23 C-43 22.01 -43 21.02 -43 20 C-41.55737305 18.77661133 -41.55737305 18.77661133 -39.51171875 17.58203125 C-38.75117188 17.13585449 -37.990625 16.68967773 -37.20703125 16.22998047 C-36.37558594 15.76221191 -35.54414063 15.29444336 -34.6875 14.8125 C-33.841875 14.3292627 -32.99625 13.84602539 -32.125 13.34814453 C-8.22630553 0 -8.22630553 0 0 0 Z " fill="#598CF1" transform="translate(215,98)"/>
</svg>
